<?xml version="1.0" encoding="UTF-8" standalone="no"?>
<!-- Created with Inkscape (http://www.inkscape.org/) -->

<svg
   version="1.1"
   id="svg1"
   width="256"
   height="256"
   viewBox="0 0 256 256"
   sodipodi:docname="linkedin.svg"
   xml:space="preserve"
   inkscape:version="1.4.3 (0d15f75, 2025-12-25)"
   xmlns:inkscape="http://www.inkscape.org/namespaces/inkscape"
   xmlns:sodipodi="http://sodipodi.sourceforge.net/DTD/sodipodi-0.dtd"
   xmlns="http://www.w3.org/2000/svg"
   xmlns:svg="http://www.w3.org/2000/svg"><defs
     id="defs1" /><sodipodi:namedview
     id="namedview1"
     pagecolor="#505050"
     bordercolor="#eeeeee"
     borderopacity="1"
     inkscape:showpageshadow="0"
     inkscape:pageopacity="0"
     inkscape:pagecheckerboard="0"
     inkscape:deskcolor="#505050"
     inkscape:zoom="1.5917969"
     inkscape:cx="123.44539"
     inkscape:cy="115.90674"
     inkscape:window-width="1920"
     inkscape:window-height="1017"
     inkscape:window-x="-8"
     inkscape:window-y="-2"
     inkscape:window-maximized="1"
     inkscape:current-layer="g1" /><g
     inkscape:groupmode="layer"
     inkscape:label="Image"
     id="g1"><g
       style="fill:#000000;stroke:#000000;stroke-width:0.00382"
       id="g2"
       transform="matrix(2.2386306,0,0,2.2386306,-535.17651,-435.54849)"><g
         id="SVGRepo_bgCarrier"
         stroke-width="0" /><g
         id="SVGRepo_tracerCarrier"
         stroke-linecap="round"
         stroke-linejoin="round"
         stroke="#cccccc"
         stroke-width="0.764" /><g
         id="SVGRepo_iconCarrier"> <path
   style="fill:#ffffff;stroke-width:0.00146681"
   d="m 266.76077,305.05359 c 0,2.13277 -1.72868,3.86154 -3.86152,3.86154 h -16.43731 c -2.13266,0 -3.86152,-1.72877 -3.86152,-3.86154 v -68.9047 c 0,-2.13262 1.72886,-3.86146 3.86152,-3.86146 h 16.43731 c 2.13284,0 3.86152,1.72884 3.86152,3.86146 z m -12.08021,-79.26135 c -8.62418,0 -15.61559,-6.99156 -15.61559,-15.61569 0,-8.62406 6.99141,-15.61558 15.61559,-15.61558 8.62425,0 15.61565,6.99152 15.61565,15.61558 0,8.62413 -6.99103,15.61569 -15.61565,15.61569 z m 97.98132,79.57237 c 0,1.96075 -1.58974,3.55052 -3.55037,3.55052 h -17.63849 c -1.9607,0 -3.55049,-1.58977 -3.55049,-3.55052 v -32.32018 c 0,-4.82141 1.41438,-21.12786 -12.60007,-21.12786 -10.87051,0 -13.07546,11.16124 -13.51817,16.17006 v 37.27798 c 0,1.96075 -1.58934,3.55052 -3.55043,3.55052 h -17.05939 c -1.9608,0 -3.55055,-1.58977 -3.55055,-3.55052 v -69.5267 c 0,-1.96075 1.58975,-3.55048 3.55055,-3.55048 h 17.05939 c 1.9607,0 3.55043,1.58973 3.55043,3.55048 v 6.01151 c 4.03084,-6.04917 10.02118,-10.71821 22.77559,-10.71821 28.24371,0 28.082,26.38674 28.082,40.88488 z"
   id="path1-4"
   sodipodi:nodetypes="sssssssssssssssssssscsssssssscsss" /> </g></g></g></svg>
