<?xml version="1.0" encoding="UTF-8" standalone="no"?>
<!-- Created with Inkscape (http://www.inkscape.org/) -->

<svg
   version="1.1"
   id="svg1"
   width="310.263"
   height="256"
   viewBox="0 0 310.263 256"
   sodipodi:docname="mail.svg"
   inkscape:version="1.4.3 (0d15f75, 2025-12-25)"
   xmlns:inkscape="http://www.inkscape.org/namespaces/inkscape"
   xmlns:sodipodi="http://sodipodi.sourceforge.net/DTD/sodipodi-0.dtd"
   xmlns="http://www.w3.org/2000/svg"
   xmlns:svg="http://www.w3.org/2000/svg">
  <defs
     id="defs1" />
  <sodipodi:namedview
     id="namedview1"
     pagecolor="#505050"
     bordercolor="#eeeeee"
     borderopacity="1"
     inkscape:showpageshadow="0"
     inkscape:pageopacity="0"
     inkscape:pagecheckerboard="0"
     inkscape:deskcolor="#505050"
     inkscape:zoom="1.5917969"
     inkscape:cx="76.328833"
     inkscape:cy="117.79141"
     inkscape:window-width="1920"
     inkscape:window-height="1017"
     inkscape:window-x="1912"
     inkscape:window-y="-8"
     inkscape:window-maximized="1"
     inkscape:current-layer="g1" />
  <g
     inkscape:groupmode="layer"
     inkscape:label="Image"
     id="g1">
    <path
       style="fill:#ffffff;fill-opacity:1;stroke-width:1.21196"
       d="M 30.54191,254.2018 C 18.778318,251.35406 6.775689,240.74613 1.774837,228.77742 0.290583,225.22511 0,213.79515 0,158.96505 0,116.31455 0.436126,92.585529 1.247893,91.068729 4.506886,84.979255 17.641371,83.003245 23.616737,87.70346 c 6.64486,5.226841 6.682385,5.617489 6.682385,69.56666 v 58.94033 l 4.12068,4.12067 4.120681,4.12067 H 155.1315 271.72252 l 4.12069,-4.12067 4.12067,-4.12067 v -58.94033 c 0,-63.949171 0.0376,-64.339819 6.68238,-69.56666 5.97536,-4.700215 19.10985,-2.724205 22.36886,3.365269 0.81176,1.5168 1.24788,25.245821 1.24788,67.896321 0,54.8301 -0.29058,66.26006 -1.77483,69.81237 -5.12277,12.2605 -17.00811,22.58447 -29.34046,25.48607 -10.00348,2.35366 -238.862965,2.29686 -248.6058,-0.0617 z M 149.36684,156.54121 C 144.94637,154.76481 6.98646,58.481265 3.332903,54.622732 0.266911,51.384727 0,50.324787 0,41.387332 0,35.597939 0.717227,29.955259 1.774837,27.424045 6.870519,15.22838 18.215953,5.3475802 30.856746,2.0964543 c 10.868374,-2.7952724 237.681144,-2.7952724 248.549504,0 12.64079,3.2511259 23.98624,13.1319257 29.08192,25.3275907 1.0576,2.531214 1.77483,8.173894 1.77483,13.963287 0,8.937805 -0.26679,9.997154 -3.33291,13.233959 -4.00989,4.233126 -141.79884,100.232239 -146.34651,101.961239 -3.82897,1.45578 -7.52519,1.44215 -11.21674,-0.0413 z m 55.86939,-68.688284 c 27.4353,-19.136685 54.98469,-38.340125 61.22087,-42.674313 l 11.33851,-7.880339 -3.22533,-2.774301 -3.22532,-2.774299 H 155.1315 38.918042 l -3.206616,2.758211 -3.206618,2.758213 53.738567,37.445134 c 23.754745,14.550531 44.784175,33.617548 68.696315,47.899948 0.22781,0.0196 22.86125,-15.62157 50.29654,-34.758254 z"
       id="path1"
       sodipodi:nodetypes="sssssscccccccsssssssssssssssssssscccccccsss" />
  </g>
</svg>
