<?xml version="1.0" encoding="UTF-8" standalone="no"?>
<!-- Uploaded to: SVG Repo, www.svgrepo.com, Transformed by: SVG Repo Mixer Tools -->

<svg
   width="250.21899"
   height="256"
   viewBox="0 0 7.5065698 7.68"
   fill="none"
   stroke="#000000"
   stroke-width="0.00024"
   version="1.1"
   id="svg1"
   sodipodi:docname="download.svg"
   inkscape:version="1.4.3 (0d15f75, 2025-12-25)"
   xmlns:inkscape="http://www.inkscape.org/namespaces/inkscape"
   xmlns:sodipodi="http://sodipodi.sourceforge.net/DTD/sodipodi-0.dtd"
   xmlns="http://www.w3.org/2000/svg"
   xmlns:svg="http://www.w3.org/2000/svg">
  <defs
     id="defs1" />
  <sodipodi:namedview
     id="namedview1"
     pagecolor="#505050"
     bordercolor="#eeeeee"
     borderopacity="1"
     inkscape:showpageshadow="0"
     inkscape:pageopacity="0"
     inkscape:pagecheckerboard="0"
     inkscape:deskcolor="#505050"
     inkscape:zoom="2.0375"
     inkscape:cx="112.63804"
     inkscape:cy="199.01841"
     inkscape:window-width="1920"
     inkscape:window-height="1017"
     inkscape:window-x="1912"
     inkscape:window-y="-8"
     inkscape:window-maximized="1"
     inkscape:current-layer="svg1" />
  <g
     id="SVGRepo_iconCarrier"
     transform="matrix(0.4954762,0,0,0.4954762,-2.0437799,-2.1057144)"
     style="fill:#ffffff;fill-opacity:1;stroke:none;stroke-opacity:1">
    <path
       d="m 5.625,15 c 0,-0.4142 -0.33579,-0.75 -0.75,-0.75 -0.41421,0 -0.75,0.3358 -0.75,0.75 z m -0.75,1 h -0.75 z m 14.4,-1 c 0,-0.4142 -0.3358,-0.75 -0.75,-0.75 -0.4142,0 -0.75,0.3358 -0.75,0.75 z m -8.1664,0.5387 c -0.2547,0.3266 -0.1965,0.7979 0.1301,1.0527 0.3266,0.2547 0.7979,0.1965 1.0527,-0.1301 z m 5.0828,-4.0774 c 0.2547,-0.3266 0.1965,-0.7979 -0.1301,-1.0527 -0.3266,-0.2547 -0.7979,-0.1965 -1.0527,0.1301 z m -5.0828,5 c 0.2548,0.3266 0.7261,0.3848 1.0527,0.1301 0.3266,-0.2548 0.3848,-0.7261 0.1301,-1.0527 z M 8.39138,10.5387 C 8.13662,10.2121 7.66533,10.1539 7.33873,10.4086 7.01212,10.6634 6.95387,11.1347 7.20862,11.4613 Z M 10.95,16 c 0,0.4142 0.3358,0.75 0.75,0.75 0.4142,0 0.75,-0.3358 0.75,-0.75 z M 12.45,5 C 12.45,4.58579 12.1142,4.25 11.7,4.25 11.2858,4.25 10.95,4.58579 10.95,5 Z M 4.125,15 v 1 h 1.5 v -1 z m 0,1 c 0,2.0531 1.62757,3.75 3.675,3.75 v -1.5 C 6.61657,18.25 5.625,17.2607 5.625,16 Z M 7.8,19.75 h 7.8 v -1.5 H 7.8 Z m 7.8,0 c 2.0474,0 3.675,-1.6969 3.675,-3.75 h -1.5 c 0,1.2607 -0.9916,2.25 -2.175,2.25 z M 19.275,16 v -1 h -1.5 v 1 z m -6.9836,0.4613 3.9,-5 -1.1828,-0.9226 -3.9,5 z m 0,-0.9226 -3.90002,-5 -1.18276,0.9226 3.89998,5 z M 12.45,16 V 5 h -1.5 v 11 z"
       fill="#ffffff"
       id="path1"
       style="stroke-width:0.00030274;stroke-dasharray:none;fill:#ffffff;fill-opacity:1;stroke:none;stroke-opacity:1" />
  </g>
</svg>
